<svg width="32" height="32" viewBox="0 0 32 32" fill="none" xmlns="http://www.w3.org/2000/svg">
<g clip-path="url(#clip0_4323_655)">
<path d="M4 8.00037V9.50037H18.25V20.7504H13.633C13.2985 19.4611 12.139 18.5004 10.75 18.5004C9.361 18.5004 8.2015 19.4611 7.867 20.7504H7V17.0004H5.5V22.2504H7.867C8.2015 23.5396 9.361 24.5004 10.75 24.5004C12.139 24.5004 13.2985 23.5396 13.633 22.2504H19.867C20.2015 23.5396 21.361 24.5004 22.75 24.5004C24.139 24.5004 25.2985 23.5396 25.633 22.2504H28V16.1334L27.9528 16.0156L26.4528 11.5156L26.29 11.0004H19.75V8.00037H4ZM4.75 11.0004V12.5004H11.5V11.0004H4.75ZM19.75 12.5004H25.2108L26.5 16.3441V20.7504H25.633C25.2985 19.4611 24.139 18.5004 22.75 18.5004C21.361 18.5004 20.2015 19.4611 19.867 20.7504H19.75V12.5004ZM5.5 14.0004V15.5004H10V14.0004H5.5ZM10.75 20.0004C11.5877 20.0004 12.25 20.6626 12.25 21.5004C12.25 22.3381 11.5877 23.0004 10.75 23.0004C9.91225 23.0004 9.25 22.3381 9.25 21.5004C9.25 20.6626 9.91225 20.0004 10.75 20.0004ZM22.75 20.0004C23.5877 20.0004 24.25 20.6626 24.25 21.5004C24.25 22.3381 23.5877 23.0004 22.75 23.0004C21.9123 23.0004 21.25 22.3381 21.25 21.5004C21.25 20.6626 21.9123 20.0004 22.75 20.0004Z" fill="black"/>
</g>
<defs>
<clipPath id="clip0_4323_655">
<rect width="24" height="24" fill="white" transform="translate(4 4.00037)"/>
</clipPath>
</defs>
</svg>
