<?xml version="1.0" encoding="utf-8"?>
<!-- Generator: Adobe Illustrator 20.0.0, SVG Export Plug-In . SVG Version: 6.00 Build 0)  -->
<!DOCTYPE svg PUBLIC "-//W3C//DTD SVG 1.1//EN" "http://www.w3.org/Graphics/SVG/1.1/DTD/svg11.dtd">
<svg version="1.1" id="Layer_1" xmlns="http://www.w3.org/2000/svg" xmlns:xlink="http://www.w3.org/1999/xlink" x="0px" y="0px"
	 viewBox="0 0 372.3 24.6" style="enable-background:new 0 0 372.3 24.6;" xml:space="preserve">
<g>
	<polygon points="365.1,0.8 364.9,1.3 367.4,2.1 359.1,12.4 350.2,2.1 353.6,1.3 353.4,0.8 339.3,0.8 339.3,1.3 343.3,2.3 
		353.3,13.8 353.3,22.4 349.7,23.3 349.7,23.8 363.6,23.8 363.6,23.3 360,22.4 360,13.5 369.2,2.1 372.3,1.3 372.3,0.8 	"/>
	<path d="M340.9,22.3L328.2,0.8H318v0.5l4,1l0.6,1.1l-12,19.1l-3,0.8v0.5h7.2l0.2-0.5l-2.5-0.8l3-4.7h15.7l2.8,4.7l-3.4,0.8l0.2,0.5
		H345v-0.5L340.9,22.3z M316.2,16.5l7.3-11.7l6.9,11.7H316.2z"/>
	<polygon points="33.8,1.3 33.8,0.8 20.3,0.8 20.3,1.3 23.9,2.1 23.9,11.1 9.9,11.1 9.9,2.1 13.5,1.3 13.5,0.8 0,0.8 0,1.3 3.6,2.1 
		3.6,22.4 0,23.3 0,23.8 13.5,23.8 13.5,23.3 9.9,22.4 9.9,12.3 23.9,12.3 23.9,22.4 20.3,23.3 20.3,23.8 33.8,23.8 33.8,23.3 
		30.2,22.4 30.2,2.1 	"/>
	<path d="M92.7,0.8c-1.6,0-17.7,0-17.7,0v0.5l3.6,0.8v20.3L75,23.2v0.5c0,0,17.3,0,17.9,0c8.9,0,14.7-4.5,14.7-11.5
		C107.7,6.8,102.6,0.8,92.7,0.8z M92.9,22.9h-5.5l-2.1-0.2V1.6c1.2,0,6.8,0,7.9,0c4.4,0,7.6,3.9,7.6,10.6
		C100.7,15.9,98.6,22.9,92.9,22.9z"/>
	<path d="M64.2,0.8v0.5L67,2.1v13.4c0,4.4-3.2,7.4-9,7.4c-4.6,0-8.8-2.6-8.8-7V2.1l3.6-0.8V0.8H39v0.5l3.6,0.8V15
		c0,6.2,4.8,9.5,13.9,9.5c8,0,11.9-3.3,11.9-9.4c0-0.2,0-13,0-13l2.8-0.8V0.8H64.2z"/>
	<polygon points="207.8,0.8 207.8,1.3 210.6,2.1 210.6,16.1 192.3,0.8 181.2,0.8 181.2,1.3 184.8,2.2 184.8,22.4 182,23.3 182,23.8 
		189.2,23.8 189.2,23.3 186.4,22.4 186.4,3.4 210.6,24.5 212.2,24.5 212.2,2.1 215,1.3 215,0.8 	"/>
	<polygon points="221.2,0.8 224.8,0.8 220.1,6.9 218.6,6.9 	"/>
	<path d="M250.4,10.6c-2.7-0.9-7-1.4-12.4-1.8c-4.1-0.3-5.9-1.8-5.9-3.9c0-2.5,3.1-4,7.8-4c7.3,0,10.7,4.5,11.6,7.8h0.4V2.6
		c0,0-6-2.6-12.1-2.6c-7.3,0-11.6,3-11.6,8.3c0,3.3,2.6,6,11.9,6.6c7.8,0.6,10.2,2,10.2,5.1c0,2.4-3.1,3.7-7.9,3.7
		c-6.6,0-12.2-3.3-13.5-8.1h-0.4V22c0,0,7.1,2.6,13.6,2.6c6.9,0,13.1-1.9,13.1-8.6C255.3,13.8,253.3,11.5,250.4,10.6z"/>
	<path d="M136.4,10.6c-2.7-0.9-7-1.4-12.4-1.8c-4.2-0.3-6-1.8-6-3.9c0-2.5,3.1-4,7.8-4c7.3,0,10.7,4.5,11.6,7.8h0.4V2.6
		c0,0-6-2.6-12.1-2.6c-7.3,0-11.6,3-11.6,8.3c0,3.3,2.6,6,11.9,6.6c7.8,0.6,10.3,2,10.3,5.1c0,2.4-3.1,3.7-7.9,3.7
		c-6.6,0-12.2-3.3-13.5-8.1h-0.4V22c0,0,7.1,2.6,13.6,2.6c6.9,0,13.1-1.9,13.1-8.6C141.3,13.8,139.3,11.5,136.4,10.6z"/>
	<path d="M178,12.3c0-2.2-0.6-4.3-1.6-5.9c-2.4-3.9-7.8-6.4-14-6.4c-9.1,0-15.2,4.9-15.2,12.3s6.2,12.2,15.4,12.2
		C171.9,24.5,178,19.7,178,12.3z M169.7,19.2c-1.2,3.1-3.6,4.6-7.2,4.6c-5.3,0-8.3-4-8.3-11.2c0-2.4,0.4-4.6,1.1-6.7
		c1.2-3.4,3.6-5.1,7.4-5.1c1.8,0,3.3,0.4,4.4,1.1c2.4,1.6,3.8,5.4,3.8,10.2C171,14.7,170.5,17,169.7,19.2z"/>
	<path d="M306.1,17.7c0-4.2-5.1-6.3-10.8-6.3c4.8,0,8.6-1.8,8.6-5.2c0-3.6-4.6-5.4-10.6-5.4h-18.6v0.5l3.6,0.8v20.3l-3.6,0.8v0.5
		h20.8C302.5,23.8,306.1,20.8,306.1,17.7z M284.8,1.6h6.3c4.4,0,7,1,7,4.7c0,3.8-2.6,4.7-5.8,4.7h-7.4V1.6H284.8z M287,23l-2.2-0.2
		V12h7.2c4.4,0,7.7,0.6,7.7,5.5c0,4.1-3.8,5.4-7.5,5.4H287V23z"/>
</g>
</svg>
