<?xml version="1.0" encoding="UTF-8"?>
<svg width="16px" height="24px" viewBox="0 0 16 24" version="1.1" xmlns="http://www.w3.org/2000/svg" xmlns:xlink="http://www.w3.org/1999/xlink">
    <!-- Generator: sketchtool 56.3 (101010) - https://sketch.com -->
    <title>30FECCFE-3806-400A-B3AF-212877C93E8E</title>
    <desc>Created with sketchtool.</desc>
    <defs>
        <path d="M14,2.2715 C9.59375,2.2715 6.02225,5.99375 6.02225,10.24925 C6.02225,15.9305 10.4375,17.618 14,25.7225 C17.79725,17.71175 21.97775,15.32075 21.97775,10.24925 C21.97775,5.83325 18.40625,2.2715 14,2.2715 Z M14,15.89375 C10.86425,15.89375 8.31875,13.34825 8.31875,10.2125 C8.31875,7.07675 10.86425,4.53575 14,4.53575 C17.13575,4.53575 19.68125,7.08125 19.68125,10.217 C19.68125,13.35275 17.13575,15.89375 14,15.89375 Z" id="path-1"></path>
    </defs>
    <g id="Footer-Bay" stroke="none" stroke-width="1" fill="none" fill-rule="evenodd">
        <g id="Bay-Desktop-Footer-1024-Copy" transform="translate(-563.000000, -677.000000)">
            <g id="Group-3" transform="translate(18.000000, 672.000000)">
                <g id="Group-8" transform="translate(0.000000, 3.000000)">
                    <g id="STORE-LOCATOR" transform="translate(539.000000, 0.000000)">
                        <g id="Icons/location">
                            <mask id="mask-2" fill="white">
                                <use xlink:href="#path-1"></use>
                            </mask>
                            <g id="location" fill-rule="nonzero"></g>
                            <g id="🎨-color" mask="url(#mask-2)" fill="#222222">
                                <rect id="Rectangle-Copy-33" x="0" y="0" width="28" height="28"></rect>
                            </g>
                        </g>
                    </g>
                </g>
            </g>
        </g>
    </g>
</svg>