<svg width="96" height="10" viewBox="0 0 96 10" fill="none" xmlns="http://www.w3.org/2000/svg">
<path fill-rule="evenodd" clip-rule="evenodd" d="M87.8088 -0.000512633H81.657V0.216154L83.3814 0.645737L87.7376 5.65134V9.40554L86.1668 9.76042V10.0032H92.2174V9.77536L90.6467 9.42048V5.53928L94.6879 0.600913L96 0.22736V-0.000512633H92.8735L92.8023 0.22736L93.8857 0.600913L90.2605 5.03871L86.4068 0.600913L87.8651 0.22736L87.8088 -0.000512633ZM74.7741 1.7776L77.7732 6.82803H71.5914L74.7741 1.7776ZM69.1659 9.40554L67.8538 9.76042L67.85 9.99949H70.9766L71.0478 9.77162L69.9606 9.41674L71.2502 7.35848H78.0919L79.3065 9.40554L77.8332 9.76042L77.9044 9.98081H84.0825V9.75295L82.3543 9.32709L76.8322 -0.0117188H72.3786V0.216154L74.1218 0.645737L74.3918 1.11268L69.1659 9.40554ZM61.1621 9.63341H58.8904L57.9344 9.53255V4.89677H61.0759C62.9878 4.89677 64.4161 5.13957 64.4161 7.29871C64.4161 9.06187 62.7441 9.63341 61.1621 9.63341ZM63.7001 2.40891C63.7001 4.05254 62.5605 4.42609 61.1621 4.42609H57.9344V0.37304H60.6748C62.5755 0.37304 63.7001 0.828778 63.7001 2.40891ZM55.0928 9.40554L53.5258 9.76042V10.0107H62.5642C65.6645 10.0107 67.1902 8.69952 67.1902 7.36594C67.1902 5.52806 64.9784 4.65022 62.508 4.65022C64.5736 4.63528 66.2568 3.85082 66.2568 2.37529C66.2568 0.810102 64.2399 0.0106935 61.6157 0.0106935H53.5258V0.238566L55.0928 0.612119V9.40554ZM5.15089 9.40554L3.58388 9.76042V9.99202H9.54077V9.76415L7.97001 9.40928V0.421603H10.0244C10.695 0.44848 11.3403 0.683711 11.8701 1.09433C12.3998 1.50496 12.7873 2.07041 12.9784 2.71148H13.1584V-0.00798035H0V2.71148H0.172443C0.363543 2.07041 0.751105 1.50496 1.28083 1.09433C1.81056 0.683711 2.45592 0.44848 3.12652 0.421603H5.15089V9.40554ZM24.2212 0.227356V-0.000511169H30.1893V0.227356L28.6186 0.597173V9.41301L30.1893 9.77162V9.99949H24.2212V9.77162L25.7919 9.41301V4.99389H19.6813V9.41301L21.2521 9.77162V9.99949H15.2877V9.77162L16.8585 9.41301V0.597173L15.2877 0.227356V-0.000511169H21.2521V0.227356L19.6813 0.597173V4.50827H25.7919V0.597173L24.2212 0.227356ZM32.4161 9.76042L33.9831 9.38687V0.612122L32.4161 0.238569V0.0106964H43.6626V3.29797H43.4939C43.1378 2.06151 42.3205 0.44028 39.8388 0.44028H36.8135V4.46345H38.4705C40.0262 4.46345 40.5398 3.38388 40.7685 2.59568H40.941V6.73464H40.7685C40.5398 5.96886 40.0412 4.90051 38.5005 4.88556H36.8285V9.48025L37.7845 9.58111H40.2249C43.0103 9.58111 43.9213 7.71335 44.3486 6.29385H44.5473V10.007H32.4161V9.76042Z" fill="black"/>
</svg>