<svg width="20" height="16" viewBox="0 0 20 16" fill="none" xmlns="http://www.w3.org/2000/svg">
<path d="M7.50008 0.916992C3.59546 0.916992 0.416748 4.09571 0.416748 8.00033C0.416748 11.9049 3.59546 15.0837 7.50008 15.0837C7.92715 15.0837 8.34359 15.0393 8.75008 14.9665C9.15514 15.0393 9.57157 15.0837 10.0001 15.0837C10.4273 15.0837 10.8434 15.0394 11.2501 14.9665C11.6551 15.0393 12.0716 15.0837 12.5001 15.0837C16.4046 15.0837 19.5834 11.9048 19.5834 8.00033C19.5834 4.09585 16.4046 0.916992 12.5001 0.916992C12.0716 0.916992 11.6551 0.961384 11.2501 1.03418C10.8434 0.961264 10.4273 0.916992 10.0001 0.916992C9.57157 0.916992 9.15514 0.961384 8.75008 1.03418C8.34359 0.961336 7.92715 0.916992 7.50008 0.916992ZM7.50008 2.16699C7.86322 2.16699 8.21676 2.20403 8.56128 2.26709C8.60765 2.28071 8.65544 2.2889 8.70369 2.2915C11.3521 2.84424 13.3334 5.18427 13.3334 8.00033C13.3334 10.8167 11.3517 13.1567 8.70288 13.7091C8.65408 13.7116 8.60573 13.7198 8.55884 13.7336C8.21505 13.7963 7.86239 13.8337 7.50008 13.8337C4.27101 13.8337 1.66675 11.2294 1.66675 8.00033C1.66675 4.77126 4.27101 2.16699 7.50008 2.16699ZM11.9727 2.51449C14.2252 3.32154 15.8334 5.46536 15.8334 8.00033C15.8334 10.5353 14.2252 12.6791 11.9727 13.4862C13.5644 12.186 14.5834 10.2102 14.5834 8.00033C14.5834 5.79047 13.5644 3.81466 11.9727 2.51449ZM14.4727 2.51449C16.7252 3.32154 18.3334 5.46536 18.3334 8.00033C18.3334 10.5353 16.7252 12.6791 14.4727 13.4862C16.0645 12.186 17.0834 10.2101 17.0834 8.00033C17.0834 5.79054 16.0645 3.81469 14.4727 2.51449ZM7.50008 3.41699C7.18341 3.41699 6.92756 3.67406 6.92798 3.99072V4.57747C5.89006 4.65247 5.06519 5.51218 5.06519 6.56885C5.06519 7.67426 5.96498 8.57406 7.07039 8.57406H8.073C8.54675 8.57406 8.93237 8.95887 8.93237 9.43262C8.93237 9.90637 8.54675 10.292 8.073 10.292H6.94914C6.41705 10.292 6.08392 10.0713 5.89933 9.88672C5.67558 9.66297 5.31335 9.66297 5.0896 9.88672C4.86585 10.1105 4.86585 10.4735 5.0896 10.6973C5.56252 11.1702 6.21466 11.43 6.92716 11.4354V12.0107C6.92716 12.327 7.18341 12.5837 7.50008 12.5837C7.81675 12.5837 8.073 12.327 8.073 12.0107V11.4378C9.17841 11.4378 10.0774 10.5372 10.0774 9.4318C10.0774 8.32639 9.1776 7.4266 8.07218 7.4266H7.07039C6.59664 7.4266 6.21102 7.04178 6.21102 6.56803C6.21102 6.09428 6.59664 5.70866 7.07039 5.70866H7.95093C8.48812 5.70866 8.73518 6.01741 8.73787 6.01872V6.01953C8.90884 6.28492 9.26282 6.35992 9.52889 6.18962C9.79472 6.01795 9.87146 5.66362 9.69979 5.39779C9.52145 5.12195 8.95716 4.61596 8.073 4.57096V3.98991C8.073 3.67366 7.81675 3.41699 7.50008 3.41699Z" fill="#08498F"/>
</svg>
