<?xml version="1.0" encoding="utf-8"?>
<!-- Generator: Adobe Illustrator 24.1.2, SVG Export Plug-In . SVG Version: 6.00 Build 0)  -->
<svg version="1.1" id="Layer_1" xmlns="http://www.w3.org/2000/svg" xmlns:xlink="http://www.w3.org/1999/xlink" x="0px" y="0px"
	 viewBox="0 0 83.2 131.8" style="enable-background:new 0 0 83.2 131.8;" xml:space="preserve">
<style type="text/css">
	.st0{fill:#282829;}
</style>
<g>
	<path class="st0" d="M76.4,0.1H6.8C3.1,0.1,0,3.1,0,6.9V125c0,3.7,3,6.8,6.8,6.8h69.6c3.8,0,6.8-3.1,6.8-6.8V6.9
		C83.2,3.2,80.2,0.1,76.4,0.1z M77.9,121.4c0,2-1.6,3.6-3.6,3.6H8.9c-2,0-3.6-1.6-3.6-3.6V10.3c0-2,1.6-3.5,3.6-3.5l0,0l65.4,0.1
		c2,0,3.6,1.6,3.6,3.6V121.4z"/>
</g>
<path class="st0" d="M12.8,97"/>
<path class="st0" d="M68.2,115.8H16c-1.4,0-2.5-1.1-2.5-2.5s1.1-2.5,2.5-2.5h52.2c1.4,0,2.5,1.1,2.5,2.5S69.6,115.8,68.2,115.8z"/>
<path class="st0" d="M68.2,104.9H16c-1.4,0-2.5-1.1-2.5-2.5s1.1-2.5,2.5-2.5h52.2c1.4,0,2.5,1.1,2.5,2.5S69.6,104.9,68.2,104.9z"/>
</svg>
