<svg width="20" height="17" viewBox="0 0 20 17" fill="none" xmlns="http://www.w3.org/2000/svg">
    <path
        d="M16.7879 2.2377C16.3957 1.84531 15.93 1.53404 15.4175 1.32168C14.905 1.10931 14.3556 1 13.8008 1C13.246 1 12.6967 1.10931 12.1842 1.32168C11.6716 1.53404 11.206 1.84531 10.8137 2.2377L9.99979 3.05166L9.18582 2.2377C8.3936 1.44548 7.31911 1.00041 6.19874 1.00041C5.07837 1.00041 4.00388 1.44548 3.21166 2.2377C2.41943 3.02993 1.97437 4.10441 1.97437 5.22479C1.97437 6.34516 2.41943 7.41965 3.21166 8.21187L4.02562 9.02583L9.99979 15L15.974 9.02583L16.7879 8.21187C17.1803 7.81967 17.4916 7.354 17.7039 6.84146C17.9163 6.32893 18.0256 5.77958 18.0256 5.22479C18.0256 4.67 17.9163 4.12064 17.7039 3.60811C17.4916 3.09558 17.1803 2.6299 16.7879 2.2377V2.2377Z"
        stroke="white" stroke-width="2" stroke-linecap="round" />
</svg>