<?xml version="1.0" encoding="UTF-8"?>
<svg width="14px" height="15px" viewBox="0 0 14 15" version="1.1" xmlns="http://www.w3.org/2000/svg" xmlns:xlink="http://www.w3.org/1999/xlink">
    <!-- Generator: sketchtool 56.3 (101010) - https://sketch.com -->
    <title>740F2AED-8D6D-4CBD-8920-C10A8A5EA8A6</title>
    <desc>Created with sketchtool.</desc>
    <g id="Footer-Bay" stroke="none" stroke-width="1" fill="none" fill-rule="evenodd">
        <g id="Bay-Desktop-Footer-1024-Copy" transform="translate(-77.000000, -977.000000)" fill="#222222" fill-rule="nonzero">
            <g id="Group-2" transform="translate(-118.000000, 717.000000)">
                <g id="SOCIAL" transform="translate(138.000000, 258.000000)">
                    <g id="thebay-instagram" transform="translate(57.000000, 2.714286)">
                        <g id="youtube">
                            <g id="instagram">
                                <path d="M6.9980198,1.26353135 C8.86693541,1.26353135 9.08631777,1.27186233 9.82499764,1.30518623 C10.5081377,1.33573314 10.8774776,1.44958982 11.1246299,1.54678454 C11.4523149,1.67452617 11.6855823,1.82448373 11.9299576,2.06885903 C12.1743329,2.31323432 12.3270674,2.54650165 12.4520321,2.8741867 C12.5464498,3.12133899 12.6630835,3.49067893 12.6936304,4.17381895 C12.7269543,4.91249882 12.7352852,5.13188119 12.7352852,7.00079679 C12.7352852,8.8697124 12.7269543,9.08909477 12.6936304,9.82777463 C12.6630835,10.5109147 12.5492268,10.8802546 12.4520321,11.1274069 C12.3242904,11.4550919 12.1743329,11.6883593 11.9299576,11.9327346 C11.6855823,12.1771099 11.4523149,12.3298444 11.1246299,12.4548091 C10.8774776,12.5492268 10.5081377,12.6658604 9.82499764,12.6964074 C9.08631777,12.7297313 8.86693541,12.7380622 6.9980198,12.7380622 C5.1291042,12.7380622 4.90972183,12.7297313 4.17104196,12.6964074 C3.48790193,12.6658604 3.118562,12.5520038 2.87140971,12.4548091 C2.54372466,12.3270674 2.31045733,12.1771099 2.06608204,11.9327346 C1.82170674,11.6883593 1.66897218,11.4550919 1.54400754,11.1274069 C1.44958982,10.8802546 1.33295615,10.5109147 1.30240924,9.82777463 C1.26908534,9.08909477 1.26075436,8.8697124 1.26075436,7.00079679 C1.26075436,5.13188119 1.26908534,4.91249882 1.30240924,4.17381895 C1.33295615,3.49067893 1.44681282,3.12133899 1.54400754,2.8741867 C1.67174917,2.54650165 1.82170674,2.31323432 2.06608204,2.06885903 C2.31045733,1.82448373 2.54372466,1.67174917 2.87140971,1.54678454 C3.118562,1.45236681 3.48790193,1.33573314 4.17104196,1.30518623 C4.90972183,1.26908534 5.1291042,1.26353135 6.9980198,1.26353135 L6.9980198,1.26353135 Z M6.9980198,0.00277699198 C5.09855728,0.00277699198 4.85973597,0.0111079679 4.11272513,0.0444318718 C3.36849128,0.0777557756 2.86030174,0.197166431 2.41598303,0.369339934 C1.95500236,0.547067421 1.56622348,0.788665724 1.1774446,1.1774446 C0.788665724,1.56622348 0.549844413,1.95777935 0.369339934,2.41598303 C0.197166431,2.86030174 0.0777557756,3.36849128 0.0444318718,4.11550212 C0.0111079679,4.85973597 0.00277699198,5.09855728 0.00277699198,6.9980198 C0.00277699198,8.89748232 0.0111079679,9.13630363 0.0444318718,9.88331447 C0.0777557756,10.6275483 0.197166431,11.1357379 0.369339934,11.5828336 C0.547067421,12.0438142 0.788665724,12.4325931 1.1774446,12.821372 C1.56622348,13.2101509 1.95777935,13.4489722 2.41598303,13.6294767 C2.86030174,13.8016502 3.36849128,13.9210608 4.11550212,13.9543847 C4.86251297,13.9877086 5.09855728,13.9960396 7.00079679,13.9960396 C8.9030363,13.9960396 9.13908062,13.9877086 9.88609147,13.9543847 C10.6303253,13.9210608 11.1385149,13.8016502 11.5856106,13.6294767 C12.0465912,13.4517492 12.4353701,13.2101509 12.824149,12.821372 C13.2129279,12.4325931 13.4517492,12.0410372 13.6322537,11.5828336 C13.8044272,11.1385149 13.9238378,10.6303253 13.9571617,9.88331447 C13.9904856,9.13630363 13.9988166,8.90025931 13.9988166,6.9980198 C13.9988166,5.09578029 13.9904856,4.85973597 13.9571617,4.11272513 C13.9238378,3.36849128 13.8044272,2.86030174 13.6322537,2.41320603 C13.4545262,1.95222537 13.2129279,1.56344649 12.824149,1.17466761 C12.4353701,0.785888732 12.0438142,0.547067421 11.5856106,0.366562942 C11.1412918,0.194389439 10.6331023,0.0749787836 9.88609147,0.0416548798 C9.13630363,0.0111079679 8.89748232,0.00277699198 6.9980198,0.00277699198 L6.9980198,0.00277699198 Z" id="Shape"></path>
                                <path d="M6.9980198,3.40459217 C5.01524752,3.40459217 3.40459217,5.01247053 3.40459217,6.9980198 C3.40459217,8.98356907 5.01524752,10.5914474 6.9980198,10.5914474 C8.98079208,10.5914474 10.5914474,8.98079208 10.5914474,6.9980198 C10.5914474,5.01524752 8.98079208,3.40459217 6.9980198,3.40459217 Z M6.9980198,9.33069307 C5.70949552,9.33069307 4.66534653,8.28654408 4.66534653,6.9980198 C4.66534653,5.70949552 5.70949552,4.66534653 6.9980198,4.66534653 C8.28654408,4.66534653 9.33069307,5.70949552 9.33069307,6.9980198 C9.33069307,8.28654408 8.28654408,9.33069307 6.9980198,9.33069307 Z" id="Shape"></path>
                                <circle id="Oval" cx="10.733074" cy="3.26296558" r="1"></circle>
                            </g>
                        </g>
                    </g>
                </g>
            </g>
        </g>
    </g>
</svg>