<?xml version="1.0" encoding="UTF-8"?>
<svg width="15px" height="15px" viewBox="0 0 15 15" version="1.1" xmlns="http://www.w3.org/2000/svg" xmlns:xlink="http://www.w3.org/1999/xlink">
    <!-- Generator: sketchtool 56.3 (101010) - https://sketch.com -->
    <title>09C63C9B-4A27-418C-B363-8A3370B615A5</title>
    <desc>Created with sketchtool.</desc>
    <g id="Footer-Bay" stroke="none" stroke-width="1" fill="none" fill-rule="evenodd">
        <g id="Bay-Desktop-Footer-1024-Copy" transform="translate(-44.000000, -977.000000)" fill="#222222" fill-rule="nonzero">
            <g id="Group-2" transform="translate(-118.000000, 717.000000)">
                <g id="SOCIAL" transform="translate(138.000000, 258.000000)">
                    <g id="thebay-pinterest" transform="translate(24.880952, 2.714286)">
                        <g id="pinterest">
                            <path d="M7.01190476,0 C3.15535714,0 0,3.15535714 0,7.01190476 C0,9.99196429 1.840625,12.5337798 4.47008929,13.4979167 C4.38244048,12.9720238 4.38244048,12.0955357 4.47008929,11.481994 C4.5577381,10.9561012 5.25892857,7.97604167 5.25892857,7.97604167 C5.25892857,7.97604167 5.08363095,7.62544643 5.08363095,7.01190476 C5.08363095,6.04776786 5.60952381,5.34657738 6.31071429,5.34657738 C6.92425595,5.34657738 7.18720238,5.78482143 7.18720238,6.31071429 C7.18720238,6.92425595 6.83660714,7.80074405 6.57366071,8.67723214 C6.3983631,9.37842262 6.92425595,9.90431548 7.62544643,9.90431548 C8.85252976,9.90431548 9.81666667,8.58958333 9.81666667,6.74895833 C9.81666667,5.08363095 8.58958333,3.94419643 6.92425595,3.94419643 C4.90833333,3.94419643 3.76889881,5.43422619 3.76889881,7.01190476 C3.76889881,7.62544643 4.03184524,8.2389881 4.29479167,8.58958333 C4.38244048,8.50193452 4.38244048,8.58958333 4.38244048,8.67723214 C4.29479167,8.94017857 4.20714286,9.37842262 4.20714286,9.46607143 C4.20714286,9.55372024 4.11949405,9.64136905 3.94419643,9.55372024 C3.06770833,9.11547619 2.54181548,7.88839286 2.54181548,6.83660714 C2.54181548,4.6453869 4.11949405,2.62946429 7.18720238,2.62946429 C9.64136905,2.62946429 11.481994,4.38244048 11.481994,6.66130952 C11.481994,9.02782738 9.99196429,11.04375 7.88839286,11.04375 C7.18720238,11.04375 6.4860119,10.6931548 6.31071429,10.2549107 C6.31071429,10.2549107 5.96011905,11.5696429 5.87247024,11.9202381 C5.69717262,12.5337798 5.25892857,13.322619 4.99598214,13.7608631 C5.60952381,13.8485119 6.31071429,14.0238095 7.01190476,14.0238095 C10.8684524,14.0238095 14.0238095,10.8684524 14.0238095,7.01190476 C14.0238095,3.15535714 10.8684524,0 7.01190476,0 L7.01190476,0 Z" id="Shape"></path>
                        </g>
                    </g>
                </g>
            </g>
        </g>
    </g>
</svg>