<?xml version="1.0" encoding="UTF-8"?>
<svg width="15px" height="12px" viewBox="0 0 15 12" version="1.1" xmlns="http://www.w3.org/2000/svg" xmlns:xlink="http://www.w3.org/1999/xlink">
    <!-- Generator: sketchtool 56.3 (101010) - https://sketch.com -->
    <title>9BD77857-223E-433E-81A4-6DB929C3D2E3</title>
    <desc>Created with sketchtool.</desc>
    <g id="Footer-Bay" stroke="none" stroke-width="1" fill="none" fill-rule="evenodd">
        <g id="Bay-Desktop-Footer-1024-Copy" transform="translate(-109.000000, -979.000000)" fill="#222222" fill-rule="nonzero">
            <g id="Group-2" transform="translate(-118.000000, 717.000000)">
                <g id="SOCIAL" transform="translate(138.000000, 258.000000)">
                    <g id="thebay-twitter" transform="translate(89.119048, 4.272487)">
                        <g id="twitter">
                            <path d="M14.2646224,1.64476778 C13.905764,2.16416814 13.457191,2.59700176 12.9189033,3.02983539 C12.9189033,3.11640212 12.9189033,3.20296884 12.9189033,3.28953557 C12.9189033,7.27160494 9.7788921,11.340241 4.57544493,11.340241 C2.96058201,11.340241 1.4354337,10.9074074 0.0897146064,10.0417402 C0,9.95517343 0,9.78203998 0,9.78203998 C0,9.78203998 0.179429213,9.60890653 0.269143819,9.60890653 C0.448573032,9.60890653 0.717716851,9.60890653 0.897146064,9.60890653 C1.88400673,9.60890653 2.8708674,9.34920635 3.76801347,8.829806 C2.69143819,8.48353909 1.88400673,7.79100529 1.52514831,6.75220459 C1.52514831,6.66563786 1.52514831,6.57907113 1.61486291,6.49250441 C1.70457752,6.49250441 1.79429213,6.40593768 1.88400673,6.49250441 C1.97372134,6.49250441 1.97372134,6.49250441 2.06343595,6.49250441 C1.16628988,5.97310406 0.628002245,5.02087008 0.628002245,3.98206937 L0.628002245,3.98206937 C0.538287638,3.80893592 0.628002245,3.80893592 0.717716851,3.72236919 C0.807431457,3.72236919 0.897146064,3.72236919 0.897146064,3.80893592 C1.07657528,3.89550265 1.16628988,3.89550265 1.25600449,3.98206937 C0.807431457,3.46266902 0.628002245,2.77013521 0.628002245,2.07760141 C0.628002245,1.55820106 0.807431457,1.03880071 1.07657528,0.605967078 C1.07657528,0.519400353 1.07657528,0.432833627 1.16628988,0.432833627 C1.25600449,0.432833627 1.3457191,0.432833627 1.3457191,0.519400353 C2.69143819,2.07760141 4.57544493,3.11640212 6.72859548,3.28953557 C6.72859548,3.20296884 6.72859548,3.02983539 6.72859548,2.94326867 C6.72859548,1.29850088 8.16402918,0 9.8686067,0 C10.6760382,0 11.4834696,0.346266902 12.0217573,0.865667255 C12.5600449,0.779100529 13.0983325,0.519400353 13.6366202,0.259700176 C13.7263348,0.173133451 13.8160494,0.173133451 13.905764,0.259700176 C13.9954786,0.346266902 13.9954786,0.432833627 13.9954786,0.432833627 C13.905764,0.779100529 13.6366202,1.12536743 13.457191,1.47163433 C13.6366202,1.38506761 13.905764,1.29850088 14.0851932,1.29850088 C14.1749078,1.29850088 14.2646224,1.29850088 14.354337,1.38506761 C14.4440516,1.47163433 14.354337,1.47163433 14.2646224,1.64476778 Z" id="Shape"></path>
                        </g>
                    </g>
                </g>
            </g>
        </g>
    </g>
</svg>