<?xml version="1.0" encoding="UTF-8"?>
<svg width="7px" height="15px" viewBox="0 0 7 15" version="1.1" xmlns="http://www.w3.org/2000/svg" xmlns:xlink="http://www.w3.org/1999/xlink">
    <!-- Generator: sketchtool 56.3 (101010) - https://sketch.com -->
    <title>30F39B22-B0EE-4D5D-8FDB-8506DB25BC26</title>
    <desc>Created with sketchtool.</desc>
    <g id="Footer-Bay" stroke="none" stroke-width="1" fill="none" fill-rule="evenodd">
        <g id="Bay-Footer---768" transform="translate(-314.000000, -856.000000)" fill="#222222" fill-rule="nonzero">
            <g id="Components/Footer/768" transform="translate(-21.000000, 629.000000)">
                <g id="Group-3">
                    <g id="Saksfirst-Card" transform="translate(18.000000, 144.000000)">
                        <g id="SOCIAL" transform="translate(317.000000, 81.000000)">
                            <g id="thebay-fb" transform="translate(0.000000, 2.714286)">
                                <g id="facebook">
                                    <path d="M5.17127976,2.45416667 C5.521875,2.45416667 6.13541667,2.45416667 6.74895833,2.45416667 C6.74895833,2.10357143 6.74895833,1.05178571 6.74895833,0 C5.96011905,0 4.99598214,0 4.5577381,0 C1.57767857,0 1.66532738,2.36651786 1.66532738,2.7171131 C1.66532738,3.06770833 1.66532738,4.6453869 1.66532738,4.6453869 L0.262946429,4.6453869 L0.262946429,7.01190476 L1.66532738,7.01190476 L1.66532738,14.0238095 L4.5577381,14.0238095 L4.5577381,7.01190476 L6.4860119,7.01190476 C6.4860119,7.01190476 6.66130952,5.87247024 6.74895833,4.6453869 C6.4860119,4.6453869 4.5577381,4.6453869 4.5577381,4.6453869 C4.5577381,4.6453869 4.5577381,3.24300595 4.5577381,3.06770833 C4.5577381,2.8047619 4.90833333,2.45416667 5.17127976,2.45416667 L5.17127976,2.45416667 Z" id="Shape"></path>
                                </g>
                            </g>
                        </g>
                    </g>
                </g>
            </g>
        </g>
    </g>
</svg>