<?xml version="1.0" encoding="UTF-8"?>
<svg width="19px" height="12px" viewBox="0 0 19 12" version="1.1" xmlns="http://www.w3.org/2000/svg" xmlns:xlink="http://www.w3.org/1999/xlink">
    <!-- Generator: sketchtool 56.3 (101010) - https://sketch.com -->
    <title>3618E47D-0095-47E7-A193-9658FC8D162C</title>
    <desc>Created with sketchtool.</desc>
    <defs>
        <path d="M18.8160714,6.09421751 C18.8160714,6.09421751 18.5964286,5.00123285 18.1571429,4.50442164 C17.4982143,3.90824819 16.7294643,3.90824819 16.4,3.80888595 C13.9839286,3.70952371 10.25,3.70952371 10.25,3.70952371 L10.25,3.70952371 C10.25,3.70952371 6.51607143,3.70952371 4.1,3.90824819 C3.77053571,3.90824819 3.00178571,3.90824819 2.34285714,4.60378388 C1.79375,5.00123285 1.57410714,6.09421751 1.57410714,6.09421751 C1.57410714,6.09421751 1.46428571,7.38592665 1.46428571,8.67763579 L1.46428571,9.86998269 C1.46428571,11.1616918 1.68392857,12.3540387 1.68392857,12.3540387 C1.68392857,12.3540387 1.90357143,13.4470234 2.34285714,13.9438346 C3.00178571,14.540008 3.88035714,14.540008 4.20982143,14.6393703 C5.52767857,14.7387325 10.1401786,14.7387325 10.1401786,14.7387325 C10.1401786,14.7387325 13.8741071,14.7387325 16.2901786,14.540008 C16.6196429,14.540008 17.3883929,14.540008 18.0473214,13.8444724 C18.5964286,13.3476611 18.70625,12.2546765 18.70625,12.2546765 C18.70625,12.2546765 19.0357143,10.9629674 19.0357143,9.77062045 L19.0357143,8.67763579 C18.9258929,7.38592665 18.8160714,6.09421751 18.8160714,6.09421751 Z M8.38303557,11.2610543 L8.38303557,6.88911564 L13.1053569,9.07508498 L8.38303557,11.2610543 Z" id="path-1"></path>
    </defs>
    <g id="Footer-Bay" stroke="none" stroke-width="1" fill="none" fill-rule="evenodd">
        <g id="Bay-Desktop-Footer-1024-Copy" transform="translate(-141.000000, -978.000000)">
            <g id="Group-2" transform="translate(-118.000000, 717.000000)">
                <g id="SOCIAL" transform="translate(138.000000, 258.000000)">
                    <g id="Icons/youtube" transform="translate(120.261905, 0.000000)">
                        <mask id="mask-2" fill="white">
                            <use xlink:href="#path-1"></use>
                        </mask>
                        <g id="youtube" fill-rule="nonzero"></g>
                        <g id="🎨-color" mask="url(#mask-2)" fill="#222222">
                            <rect id="Rectangle-Copy-33" x="0" y="0" width="20.5" height="18.5476189"></rect>
                        </g>
                    </g>
                </g>
            </g>
        </g>
    </g>
</svg>