<svg width="17" height="16" viewBox="0 0 17 16" fill="none" xmlns="http://www.w3.org/2000/svg">
    <path d="M8.00195 0C3.60195 0 0.00195312 3.6 0.00195312 8C0.00195312 12.4 3.60195 16 8.00195 16C12.402 16 16.002 12.4 16.002 8C16.002 3.6 12.402 0 8.00195 0ZM8.00529 3.028C8.26331 3.03744 8.50762 3.14658 8.68682 3.33246C8.86603 3.51834 8.96616 3.76647 8.96616 4.02467C8.96616 4.28286 8.86603 4.531 8.68682 4.71688C8.50762 4.90276 8.26331 5.0119 8.00529 5.02133C7.45529 5.02133 7.00795 4.57467 7.00795 4.02533C7.00866 3.76104 7.11396 3.50777 7.30084 3.32089C7.48773 3.13401 7.74099 3.0287 8.00529 3.028ZM9.00195 13.0093H7.00195V7.00267H9.00195V13.0093Z" fill="#007CAD"/>
</svg>